<?xml version="1.0" standalone="no"?>
<!DOCTYPE svg PUBLIC "-//W3C//DTD SVG 20010904//EN"
 "http://www.w3.org/TR/2001/REC-SVG-20010904/DTD/svg10.dtd">
<svg version="1.0" xmlns="http://www.w3.org/2000/svg"
 width="400.000000pt" height="400.000000pt" viewBox="0 0 400.000000 400.000000"
 preserveAspectRatio="xMidYMid meet">
<metadata>
Created by potrace 1.11, written by Peter Selinger 2001-2013
</metadata>
<g transform="translate(0.000000,400.000000) scale(0.100000,-0.100000)"
fill="#000000" stroke="none">
<path d="M62 3968 c-8 -33 -32 -51 -32 -24 0 10 -6 13 -15 10 -11 -5 -15 -22
-15 -68 0 -53 4 -64 27 -86 l26 -25 -7 -149 c-6 -131 -14 -176 -40 -236 -5
-12 2 -15 35 -15 35 -1 38 1 23 12 -9 7 -21 10 -25 7 -12 -7 -11 3 0 25 19 35
40 297 27 343 -6 21 -4 27 11 30 10 2 18 12 18 23 0 11 5 20 12 20 6 0 15 3
19 8 4 4 -5 7 -21 7 -15 0 -34 8 -41 18 -12 16 -13 15 -15 -8 -1 -14 -1 -29 0
-35 1 -5 -8 1 -19 15 -24 30 -25 40 -5 40 8 0 15 5 15 11 0 5 -4 8 -9 5 -5 -3
-11 4 -14 15 -4 16 -2 19 10 15 9 -4 23 -1 31 6 13 11 15 10 9 -4 -3 -10 -2
-18 3 -18 5 0 10 -8 13 -17 4 -16 5 -16 12 1 6 13 4 21 -3 24 -7 2 -10 8 -6
13 3 5 0 9 -7 9 -7 0 -9 10 -5 30 7 40 -1 39 -12 -2z"/>
<path d="M286 3978 c-3 -13 -12 -113 -21 -223 -9 -110 -34 -425 -55 -700 -22
-275 -40 -506 -40 -514 0 -14 -31 -13 -133 5 l-37 7 0 -41 0 -40 52 -12 c29
-6 81 -14 115 -17 l62 -6 5 34 c7 46 64 750 101 1244 8 110 17 219 20 243 l5
42 -35 0 c-28 0 -36 -4 -39 -22z"/>
<path d="M380 3976 c0 -14 -16 -204 -34 -423 -19 -219 -42 -490 -51 -603 -9
-113 -22 -288 -30 -388 -8 -101 -15 -190 -15 -197 0 -7 14 -18 30 -24 16 -5
30 -14 30 -19 0 -4 19 -16 43 -26 23 -10 51 -22 62 -27 11 -5 34 -13 50 -18
17 -5 62 -21 100 -36 87 -33 288 -95 308 -95 8 0 28 -7 45 -16 18 -8 36 -13
41 -10 5 3 33 -2 63 -13 53 -19 183 -51 204 -51 6 0 14 23 18 50 4 28 9 50 12
50 3 0 43 -25 89 -55 45 -30 85 -55 88 -55 16 0 252 -153 249 -161 -1 -6 3 -7
9 -4 6 4 23 -1 37 -12 15 -11 56 -36 92 -55 111 -60 264 -155 267 -165 4 -10
-7 -21 -97 -107 -19 -18 -48 -53 -63 -77 -15 -24 -43 -63 -62 -87 -19 -23 -37
-59 -40 -80 -4 -20 -20 -71 -36 -113 -16 -42 -29 -85 -29 -96 0 -11 -6 -26
-13 -32 -8 -6 -19 -28 -25 -50 -7 -21 -19 -44 -27 -51 -8 -7 -15 -23 -15 -36
0 -14 -24 -50 -58 -91 -76 -88 -155 -204 -222 -323 -29 -52 -69 -117 -88 -144
-41 -58 -128 -247 -137 -299 l-7 -37 1366 0 1366 0 1 88 c3 254 -3 558 -11
637 -11 95 -29 184 -62 300 -11 39 -26 92 -33 119 -8 27 -19 54 -24 59 -6 6
-11 18 -11 26 0 9 -6 28 -14 42 -7 15 -22 51 -31 80 -26 79 -52 134 -111 229
-52 84 -64 101 -128 170 -34 37 -51 73 -61 130 -4 19 -14 55 -23 79 -14 38
-14 55 -2 155 27 225 24 450 -11 716 -28 217 -45 295 -79 364 -12 25 -16 44
-10 51 10 12 8 25 -10 73 -6 17 -17 32 -23 32 -6 0 -8 3 -4 6 3 4 0 18 -7 33
-8 14 -17 46 -21 70 -4 27 -17 53 -31 66 -13 12 -24 27 -24 33 0 6 -9 14 -21
17 -11 4 -35 20 -53 35 -18 16 -50 35 -72 43 -110 42 -151 56 -176 61 -15 4
-35 15 -45 25 -12 13 -32 19 -61 19 -23 1 -51 4 -62 7 -11 3 -25 3 -31 -1 -7
-4 -27 -8 -47 -9 l-35 -2 7 123 8 124 -50 0 c-59 0 -57 4 -67 -145 -5 -78 -12
-107 -28 -132 -12 -18 -25 -33 -28 -33 -3 0 -11 -16 -19 -35 -14 -35 -29 -46
-31 -22 0 6 -5 2 -11 -10 -6 -13 -15 -23 -20 -23 -4 0 -8 -7 -8 -15 0 -8 -4
-15 -9 -15 -8 0 -19 -28 -27 -68 -1 -8 -10 -22 -18 -31 -9 -10 -16 -21 -16
-26 0 -5 -7 -17 -17 -27 -15 -17 -15 -19 2 -38 11 -12 15 -26 11 -37 -6 -15
-8 -15 -17 -3 -7 11 -9 4 -8 -25 2 -60 1 -62 -23 -86 -13 -12 -17 -18 -9 -14
11 6 13 2 9 -16 -3 -13 -9 -33 -13 -43 -7 -15 -5 -17 5 -11 10 6 12 4 7 -9 -4
-10 -7 -34 -8 -54 0 -30 -2 -33 -9 -17 -9 20 -9 20 -9 0 -1 -12 4 -26 11 -33
9 -9 8 -12 -5 -12 -15 0 -17 12 -17 87 0 68 -3 84 -12 75 -31 -31 -80 0 -91
59 -4 20 -4 19 -6 -7 -1 -37 30 -81 62 -86 20 -3 22 -10 27 -83 l5 -80 33 -3
c25 -3 32 -8 32 -24 0 -16 3 -18 14 -9 10 8 16 9 21 1 9 -15 72 -12 105 5 32
17 69 63 79 102 18 66 68 49 78 -26 3 -23 11 -40 17 -40 6 1 18 -1 26 -4 46
-18 125 -30 200 -31 104 -2 140 -11 140 -37 0 -11 -7 -22 -15 -25 -8 -4 -15
-10 -15 -15 0 -6 -10 -23 -22 -39 -16 -23 -32 -31 -67 -35 -25 -3 -58 -8 -73
-10 -22 -3 -31 1 -44 25 -10 16 -21 27 -24 25 -4 -2 -13 6 -21 17 -38 57 -87
81 -76 38 3 -11 2 -21 -1 -22 -17 -3 -140 -18 -181 -21 -27 -2 -36 -8 -50 -37
-15 -33 -19 -35 -69 -36 -28 -1 -52 2 -52 8 0 5 -5 6 -11 3 -31 -20 38 -265
102 -357 40 -59 40 -60 29 -113 -6 -30 -12 -64 -12 -77 -1 -13 -6 -29 -11 -35
-7 -10 -3 -13 14 -14 13 -1 28 -1 33 0 5 1 6 -7 3 -18 -3 -11 -1 -21 4 -23 7
-3 -5 -240 -17 -315 -3 -19 -12 -34 -23 -38 -19 -6 -63 -48 -99 -94 l-19 -24
-64 35 c-253 141 -466 262 -656 375 -139 82 -143 85 -143 118 0 60 49 612 90
1005 22 212 47 455 55 540 8 85 17 174 20 198 6 39 5 42 -18 42 -23 0 -24 -4
-31 -82 -4 -46 -22 -222 -41 -393 -35 -318 -75 -704 -96 -947 -7 -76 -14 -136
-16 -134 -5 4 7 208 42 741 14 204 29 460 35 570 6 110 13 210 15 223 5 20 2
22 -38 22 l-44 0 -7 -102 c-3 -57 -24 -395 -46 -753 -53 -860 -62 -999 -66
-1004 -4 -5 -258 68 -449 129 -66 21 -183 57 -260 80 -77 24 -144 46 -148 50
-4 4 -3 74 3 156 26 378 42 575 60 779 27 304 50 590 50 631 0 27 -4 34 -20
34 -15 0 -20 -7 -20 -24z m2147 -43 c-3 -10 -5 -2 -5 17 0 19 2 27 5 18 2 -10
2 -26 0 -35z m-10 -135 c-2 -13 -4 -3 -4 22 0 25 2 35 4 23 2 -13 2 -33 0 -45z
m216 -311 c25 -13 53 -30 62 -37 17 -14 21 -50 5 -50 -5 0 -10 -9 -10 -20 0
-11 5 -20 10 -20 6 0 10 -7 10 -15 0 -8 -4 -15 -10 -15 -5 0 -10 -7 -10 -15 0
-8 -9 -15 -20 -15 -25 0 -40 -28 -29 -57 l8 -22 -122 2 c-67 1 -129 -2 -137
-8 -8 -5 -23 -8 -32 -7 -10 2 -18 -2 -18 -7 0 -6 -4 -11 -10 -11 -5 0 -10 7
-10 15 0 28 -74 28 -142 0 -14 -5 -17 -1 -16 24 1 26 4 30 20 26 19 -7 22 2
12 29 -6 16 -25 23 -23 9 3 -17 -2 -24 -11 -18 -13 8 53 139 90 178 35 38 108
55 241 56 81 1 102 -2 142 -22z m-94 -676 c22 -22 41 -55 41 -70 0 -17 -51
-13 -72 6 -21 19 -21 23 -8 57 11 31 14 32 39 7z m-305 -35 c9 -14 5 -23 -23
-47 -40 -33 -48 -31 -33 8 5 15 13 36 16 46 7 22 25 18 40 -7z m109 -47 l52
-1 -40 -10 c-22 -5 -52 -11 -68 -15 -15 -3 -30 -9 -33 -14 -9 -15 -24 -10 -18
6 7 18 -7 20 -26 3 -12 -11 -12 -10 0 6 17 22 50 36 68 30 8 -2 37 -5 65 -5z
m54 -99 c32 0 41 -3 37 -14 -9 -24 -78 -39 -141 -31 -32 4 -64 7 -70 8 -15 0
-16 7 -5 23 12 19 35 24 87 19 28 -3 69 -5 92 -5z m-1230 -272 c-3 -8 -6 -5
-6 6 -1 11 2 17 5 13 3 -3 4 -12 1 -19z m1202 -419 c1 -51 -3 -70 -16 -80 -15
-13 -16 -8 -10 71 4 47 7 103 8 125 l2 40 8 -45 c4 -25 8 -75 8 -111z m-167
-859 c21 -6 40 -14 42 -19 3 -4 -4 -39 -15 -77 -11 -38 -24 -125 -29 -194 -6
-69 -16 -158 -24 -198 -14 -71 -16 -75 -90 -150 -41 -42 -82 -86 -90 -97 -18
-25 -17 -25 -51 55 -54 129 -66 186 -59 290 13 217 94 359 221 389 52 12 53
12 95 1z m-565 -270 c25 -19 25 -20 4 -20 -11 0 -21 5 -21 11 0 5 -4 8 -8 5
-5 -3 -9 1 -9 9 0 19 4 19 34 -5z m42 -41 c-16 -10 -23 -4 -14 10 3 6 11 8 17
5 6 -4 5 -9 -3 -15z m21 -19 c-20 -13 -33 -13 -25 0 3 6 14 10 23 10 15 0 15
-2 2 -10z"/>
<path d="M2244 783 c-10 -15 -40 -58 -66 -94 -27 -37 -48 -72 -48 -78 0 -9 49
-41 64 -41 7 0 78 231 72 237 -2 3 -13 -8 -22 -24z"/>
<path d="M1660 3814 l-23 -55 -53 52 c-44 44 -54 50 -54 33 0 -12 -11 -121
-25 -244 -25 -212 -25 -223 -9 -249 33 -50 117 -131 136 -131 20 0 39 36 52
95 5 24 2 21 -16 -15 -75 -149 -75 101 0 292 14 37 32 68 38 68 12 0 29 -41
37 -90 4 -23 4 -22 6 4 0 16 -9 49 -20 74 -18 36 -19 48 -10 68 14 31 14 37 1
29 -6 -4 -10 8 -10 29 0 42 17 48 23 9 l4 -28 2 28 c1 34 -25 87 -43 87 -8 0
-24 -25 -36 -56z"/>
<path d="M142 3830 c0 -19 2 -27 5 -17 2 9 2 25 0 35 -3 9 -5 1 -5 -18z"/>
<path d="M2207 3710 c-77 -27 -145 -56 -152 -67 -24 -31 -27 -75 -17 -229 l10
-149 -5 158 c-3 105 -1 168 6 185 10 24 29 33 166 76 98 31 155 54 155 63 0
19 -11 17 -163 -37z"/>
<path d="M137 3743 c-11 -11 -8 -43 4 -43 6 0 9 6 6 14 -3 7 0 19 6 25 7 7 7
11 1 11 -6 0 -14 -3 -17 -7z"/>
<path d="M556 3713 c-8 -33 -1 -73 13 -73 4 0 5 17 3 38 -6 63 -8 68 -16 35z"/>
<path d="M162 3680 c0 -14 2 -19 5 -12 2 6 2 18 0 25 -3 6 -5 1 -5 -13z"/>
<path d="M800 3649 c0 -24 23 -21 28 4 2 10 -3 17 -12 17 -10 0 -16 -9 -16
-21z"/>
<path d="M771 3650 c-1 -8 5 -27 13 -41 17 -34 29 -82 18 -75 -5 3 -18 -2 -28
-10 -10 -9 -14 -13 -8 -10 7 3 14 -3 17 -14 7 -26 27 -26 27 0 0 11 4 20 10
20 5 0 7 -7 4 -15 -4 -8 -1 -15 5 -15 21 0 16 17 -41 140 -9 19 -17 28 -17 20z"/>
<path d="M160 3591 c0 -7 -4 -10 -9 -6 -15 9 -31 -62 -31 -136 0 -37 -3 -82
-7 -100 l-7 -34 -7 30 c-6 30 -8 28 -23 -18 -5 -16 -8 -15 -29 9 -44 51 -47
35 -47 -292 l0 -304 24 0 c14 0 28 -4 31 -10 4 -6 -7 -10 -24 -10 -20 0 -31
-5 -31 -14 0 -15 13 -21 71 -31 l36 -7 7 64 c3 34 9 111 12 171 l5 107 -53 1
c-30 1 -41 4 -25 6 23 4 27 8 22 26 l-6 22 20 -22 c23 -27 31 -29 31 -7 0 8 5
12 11 8 7 -4 10 8 8 38 -2 24 0 48 3 53 9 15 32 454 24 462 -3 3 -6 1 -6 -6z
m-48 -336 c5 -23 2 -25 -31 -25 -29 1 -33 2 -18 11 9 5 22 7 27 4 6 -3 10 3
10 14 0 29 7 26 12 -4z"/>
<path d="M750 3565 c0 -17 5 -25 13 -22 6 2 12 12 12 22 0 10 -6 20 -12 23 -8
2 -13 -6 -13 -23z"/>
<path d="M830 3581 c0 -20 13 -41 21 -35 15 9 10 44 -6 44 -8 0 -15 -4 -15 -9z"/>
<path d="M566 3562 c-11 -33 1 -86 24 -107 20 -18 21 -18 34 1 13 17 12 20 -3
25 -26 10 -39 31 -43 69 -3 32 -4 33 -12 12z"/>
<path d="M1731 3524 c0 -11 3 -14 6 -6 3 7 2 16 -1 19 -3 4 -6 -2 -5 -13z"/>
<path d="M1711 3454 c0 -11 3 -14 6 -6 3 7 2 16 -1 19 -3 4 -6 -2 -5 -13z"/>
<path d="M1691 3374 c0 -11 3 -14 6 -6 3 7 2 16 -1 19 -3 4 -6 -2 -5 -13z"/>
<path d="M40 3360 c0 -5 5 -10 11 -10 5 0 7 5 4 10 -3 6 -8 10 -11 10 -2 0 -4
-4 -4 -10z"/>
<path d="M499 3208 c0 -18 -3 -27 -6 -20 -9 23 -23 12 -48 -40 -20 -42 -29
-84 -40 -198 -8 -80 -15 -161 -15 -180 l1 -35 24 30 c14 17 25 36 25 43 0 6 4
12 9 12 5 0 12 -6 14 -12 3 -7 6 -2 6 12 l1 25 20 -25 c11 -14 20 -28 20 -32
0 -17 45 -52 74 -58 25 -5 30 -10 28 -29 -2 -12 4 -33 13 -47 9 -13 13 -29 10
-35 -4 -5 -3 -9 2 -8 25 4 41 -4 51 -26 16 -36 15 -38 -13 -31 -20 5 -25 3
-25 -11 0 -15 -2 -16 -10 -3 -6 10 -10 11 -10 3 0 -20 -44 -15 -57 6 -10 15
-10 21 0 24 7 3 4 6 -5 6 -10 1 -18 8 -18 16 0 8 -5 15 -11 15 -5 0 -7 -4 -4
-10 3 -5 1 -10 -4 -10 -10 0 -15 20 -13 42 1 3 -5 11 -13 18 -12 10 -13 6 -8
-25 l6 -36 -39 16 c-59 24 -62 32 -6 16 17 -5 32 -6 32 -1 0 5 -13 11 -30 15
-38 8 -40 24 -2 18 26 -4 26 -4 -5 11 -25 11 -31 20 -29 40 3 21 0 24 -15 16
-20 -11 -27 -39 -31 -134 l-3 -69 30 -9 c17 -5 70 -19 120 -33 l89 -24 21 22
c11 12 19 24 17 27 -2 3 5 7 14 9 12 2 15 -2 11 -13 -12 -31 38 -67 145 -102
122 -40 275 -80 282 -74 2 3 11 122 19 265 11 196 12 262 4 267 -9 6 -9 8 1 8
7 0 12 13 12 30 0 18 -5 30 -13 30 -7 0 -18 5 -25 12 -6 6 -25 13 -41 14 -17
2 -36 5 -43 6 -7 2 -14 -7 -16 -20 -4 -25 -22 -20 -22 7 0 14 -12 20 -56 27
l-57 9 2 114 c2 89 -1 112 -11 109 -8 -3 -14 -23 -16 -49 -5 -103 -24 -142
-38 -81 -9 38 -13 42 -29 35 -9 -3 -15 -18 -15 -34 0 -16 -5 -29 -10 -29 -7 0
-7 -6 -1 -19 14 -25 5 -31 -33 -24 -52 10 -66 21 -66 54 0 16 -6 32 -14 35 -8
3 -14 19 -14 37 0 18 -5 43 -10 57 l-10 25 -10 -25 c-9 -22 -11 -23 -13 -5 -1
11 -1 23 0 28 0 4 -4 7 -10 7 -6 0 -9 7 -5 15 4 12 -3 15 -29 15 -33 0 -35 -2
-36 -32z m181 -266 c0 -15 -2 -15 -10 -2 -13 20 -13 33 0 25 6 -3 10 -14 10
-23z m87 3 c-4 -8 -17 -15 -29 -15 l-23 1 24 20 c26 21 37 19 28 -6z m-97
-177 c0 -10 -5 -16 -10 -13 -16 10 -40 62 -32 69 10 10 42 -33 42 -56z m-23
-48 c5 -14 7 -34 3 -45 -6 -17 -9 -13 -19 20 -19 70 -10 86 16 25z m-182 -160
c3 -5 2 -10 -4 -10 -5 0 -13 5 -16 10 -3 6 -2 10 4 10 5 0 13 -4 16 -10z m160
-60 c8 -13 -5 -13 -25 0 -13 8 -13 10 2 10 9 0 20 -4 23 -10z m401 -80 c8 0
14 -4 14 -9 0 -11 -49 -1 -57 12 -4 7 0 8 11 4 10 -4 24 -7 32 -7z"/>
<path d="M2175 3190 c3 -5 8 -10 11 -10 2 0 4 5 4 10 0 6 -5 10 -11 10 -5 0
-7 -4 -4 -10z"/>
<path d="M2171 3104 c0 -11 3 -14 6 -6 3 7 2 16 -1 19 -3 4 -6 -2 -5 -13z"/>
<path d="M1730 3038 c-11 -18 -22 -53 -25 -78 -10 -75 -13 -78 -41 -42 -14 18
-31 32 -38 32 -7 0 -20 -31 -30 -71 -15 -55 -16 -75 -7 -95 6 -14 11 -47 11
-74 0 -46 2 -50 35 -66 20 -9 37 -20 40 -24 2 -4 1 -47 -4 -96 -4 -49 -5 -90
-1 -92 4 -1 16 -10 26 -18 18 -15 18 -15 -8 -9 -16 3 -28 1 -28 -5 0 -5 5 -10
10 -10 6 0 10 -5 10 -11 0 -5 -4 -8 -9 -5 -10 7 -21 -66 -21 -143 l0 -57 126
-67 c69 -37 131 -67 138 -68 6 0 25 -9 41 -19 54 -33 267 -142 270 -138 4 4
35 358 35 398 0 19 -3 21 -9 11 -8 -12 -16 -10 -50 13 -36 25 -43 27 -58 15
-10 -8 -24 -18 -31 -24 -26 -18 -67 -60 -87 -88 -13 -18 -30 -29 -50 -30 -16
-1 -33 -6 -37 -12 -11 -15 -12 71 -3 271 4 73 2 94 -10 104 -22 18 -27 8 -15
-25 6 -15 8 -30 5 -33 -3 -3 -5 0 -5 7 0 7 -5 9 -10 6 -6 -4 -8 -11 -5 -16 3
-5 -1 -6 -10 -3 -12 5 -13 9 -4 20 9 11 8 14 -5 14 -9 0 -16 8 -16 20 0 11 -4
20 -10 20 -5 0 -10 5 -10 11 0 6 -15 26 -34 44 l-34 33 -6 -24 c-4 -14 -11
-22 -16 -19 -6 3 -10 1 -10 -4 0 -19 -20 -12 -21 7 -1 11 -4 9 -9 -8 l-8 -25
-1 27 c-1 14 -12 40 -26 56 -27 32 -32 58 -14 64 6 2 13 15 14 28 4 39 4 40
17 38 8 -2 15 14 19 42 3 25 9 53 14 63 4 11 3 17 -5 17 -18 0 -3 87 20 125
27 42 33 19 28 -104 -2 -55 -1 -98 3 -96 3 3 6 -8 7 -23 1 -42 12 -96 21 -105
5 -5 20 4 34 19 26 28 67 40 67 20 1 -6 9 -29 19 -50 11 -22 17 -47 15 -55 -7
-26 12 21 27 64 8 25 12 77 11 135 -3 129 -23 200 -56 200 -19 0 -57 -103 -55
-147 3 -46 -5 -63 -30 -63 -37 0 -49 33 -36 100 7 38 -19 150 -36 150 -5 0
-18 -14 -29 -32z m-70 -159 c0 -5 -4 -9 -10 -9 -5 0 -10 7 -10 16 0 8 5 12 10
9 6 -3 10 -10 10 -16z m47 -341 c-3 -8 -6 -5 -6 6 -1 11 2 17 5 13 3 -3 4 -12
1 -19z m193 -98 c0 -5 -2 -10 -4 -10 -3 0 -8 5 -11 10 -3 6 -1 10 4 10 6 0 11
-4 11 -10z m233 -409 c26 -11 47 -25 47 -31 0 -13 4 -13 -56 10 -29 10 -54 16
-58 13 -9 -10 -19 26 -11 45 6 16 7 16 19 0 7 -10 34 -26 59 -37z"/>
<path d="M1532 2840 c0 -19 2 -27 5 -17 2 9 2 25 0 35 -3 9 -5 1 -5 -18z"/>
<path d="M1430 2800 c0 -14 -9 -117 -20 -230 -11 -113 -20 -216 -20 -230 0
-22 13 -32 91 -74 50 -26 94 -44 99 -40 4 5 10 47 12 93 l5 84 -34 19 c-40 24
-41 27 -6 20 24 -5 26 -3 13 9 -8 8 -30 21 -49 29 -19 8 -29 16 -23 18 6 2 21
-2 32 -8 12 -6 23 -10 25 -8 2 2 -13 40 -34 83 -21 44 -47 116 -57 160 -18 83
-34 117 -34 75z m70 -335 c14 -8 21 -14 15 -14 -5 0 -21 6 -35 14 -14 8 -20
14 -15 14 6 0 21 -6 35 -14z"/>
<path d="M1555 2802 c5 -15 1 -30 -10 -42 -23 -26 -12 -58 20 -56 20 1 25 6
25 30 0 20 -4 27 -14 23 -9 -4 -12 0 -9 13 3 10 0 27 -7 37 -10 16 -10 15 -5
-5z m0 -72 c3 -5 1 -10 -4 -10 -6 0 -11 5 -11 10 0 6 2 10 4 10 3 0 8 -4 11
-10z"/>
<path d="M575 2690 c3 -5 8 -10 11 -10 2 0 4 5 4 10 0 6 -5 10 -11 10 -5 0 -7
-4 -4 -10z"/>
<path d="M478 2673 c7 -3 16 -2 19 1 4 3 -2 6 -13 5 -11 0 -14 -3 -6 -6z"/>
<path d="M18 213 c-16 -4 -18 -18 -18 -109 l0 -104 170 0 c162 0 170 1 170 19
0 11 -4 23 -10 26 -6 3 -10 -4 -10 -17 l-1 -23 -14 25 c-8 14 -14 33 -15 43 0
22 -8 22 -33 0 -20 -18 -20 -17 -14 15 8 37 4 39 -21 12 l-19 -21 -14 33 c-8
18 -14 38 -15 43 -3 30 -18 45 -45 45 -16 0 -29 5 -29 10 0 10 -49 12 -82 3z"/>
</g>
</svg>
